# xmcd
#
# Track frame offsets:
#	150
#	16683
#	39563
#	62047
#	80970
#	104802
#	124383
#	143877
#	176018
#	199711
#	223815
#	246768
#
# Disc length: 3583 seconds
#
# Revision: 262133
# Processed by: cddbd v1.5.2PL0 Copyright (c) Steve Scherf et al.
# Submitted via: EZCDAudioConverter 8.0.2.1
#
DISCID=b70dfd0c
DTITLE=Mai Thiên Vân - Hát Để Tặng Anh
DYEAR=2010
DGENRE=
TTITLE0=Mai Thiên Vân - Hát Để Tặng Anh
TTITLE1=Mai Thiên Vân - Buồn không em
TTITLE2=Mai Thiên Vân - Mưa ngoài trời, mưa tình người
TTITLE3=Mai Thiên Vân - Quê mẹ
TTITLE4=Mai Thiên Vân - Nắng từ đâu gọi bình minh
TTITLE5=Mai Thiên Vân - Bài tango cho em
TTITLE6=Mai Thiên Vân, Thế Sơn - Rước tình về với quê hương
TTITLE7=Mai Thiên Vân - Hàn Mặc Tử
TTITLE8=Mai Thiên Vân - Giọng ca dĩ vãng
TTITLE9=Mai Thiên Vân - Khúc hát ân tình
TTITLE10=Mai Thiên Vân - Hận Tha La
TTITLE11=Mai Thiên Vân - Kẻ yêu thầm
EXTD=
EXTT0=
EXTT1=
EXTT2=
EXTT3=
EXTT4=
EXTT5=
EXTT6=
EXTT7=
EXTT8=
EXTT9=
EXTT10=
EXTT11=
PLAYORDER=
